<svg width="198" height="75" viewBox="0 0 198 75" fill="none" xmlns="http://www.w3.org/2000/svg">
<g clip-path="url(#clip0_1_32)">
<mask id="mask0_1_32" style="mask-type:luminance" maskUnits="userSpaceOnUse" x="0" y="0" width="198" height="75">
<path d="M198 0H0V75H198V0Z" fill="white"/>
</mask>
<g mask="url(#mask0_1_32)">
<path d="M84.2943 68.4194V65.1665L81.1198 60.4692H83.1309L85.177 63.6528L87.2231 60.4692H89.2167L86.0539 65.1665V68.4194H84.2943Z" fill="white"/>
<path d="M92.5839 62.1621L91.2978 65.5824H93.876L92.5839 62.1621ZM94.8756 68.4194L94.3553 67.0731H90.8068L90.2864 68.4194H88.293L91.4791 60.4692H93.683L96.8691 68.4194H94.8697H94.8756Z" fill="white"/>
<path d="M97.5764 68.4194V60.4692H99.3478V66.9287H102.85V68.4194H97.5764Z" fill="white"/>
<path d="M105.814 60.4692H104.048V68.4194H105.814V60.4692Z" fill="white"/>
<path d="M109.356 68.4194V61.9541H106.942V60.4692H113.537V61.9541H111.128V68.4194H109.356Z" fill="white"/>
<path d="M116.435 60.4692H114.676V68.4194H116.435V60.4692Z" fill="white"/>
<path d="M125.264 68.4194V62.6821L122.931 68.4194H122.165L119.832 62.6821V68.4194H118.073V60.4692H120.54L122.551 65.438L124.556 60.4692H127.035V68.4194H125.264Z" fill="white"/>
<path d="M130.449 60.4692H128.689V68.4194H130.449V60.4692Z" fill="white"/>
<path d="M137.791 68.4194L133.851 63.2367V68.4194H132.085V60.4692H133.898L137.733 65.467V60.4692H139.493V68.4194H137.791Z" fill="white"/>
<path d="M150.039 68.4194V65.1665L146.865 60.4692H148.87L150.916 63.6528L152.962 60.4692H154.962L151.798 65.1665V68.4194H150.039Z" fill="white"/>
<path d="M158.569 67.2981L159.533 65.975C160.118 66.5586 161.018 67.0613 162.164 67.0613C163.14 67.0613 163.602 66.6395 163.602 66.1773C163.602 64.7964 158.844 65.7613 158.844 62.7685C158.844 61.4454 160.03 60.3477 161.976 60.3477C163.292 60.3477 164.385 60.7289 165.203 61.457L164.227 62.7164C163.555 62.1214 162.667 61.8498 161.819 61.8498C161.076 61.8498 160.655 62.1617 160.655 62.6356C160.655 63.8894 165.402 63.0458 165.402 66.0097C165.402 67.4599 164.309 68.5577 162.087 68.5577C160.492 68.5577 159.352 68.0435 158.569 67.2924" fill="white"/>
<path d="M146.087 60.4692H144.327V68.4194H146.087V60.4692Z" fill="white"/>
<path d="M146.087 58.2158H144.327V59.9087H146.087V58.2158Z" fill="white"/>
<path d="M157.498 58.2158H155.739V59.9087H157.498V58.2158Z" fill="white"/>
<path d="M168.343 58.2158H166.584V59.9087H168.343V58.2158Z" fill="white"/>
<path d="M157.498 60.4692H155.739V68.4194H157.498V60.4692Z" fill="white"/>
<path d="M168.343 60.4692H166.584V68.4194H168.343V60.4692Z" fill="white"/>
<path d="M93.9168 23.7288C102.551 23.7288 108.982 29.4083 108.982 37.5201C108.982 45.6319 102.546 51.3115 93.9168 51.3115C85.2881 51.3115 78.8048 45.6319 78.8048 37.5201C78.8048 29.4083 85.2822 23.7288 93.9168 23.7288ZM93.9168 29.8069C89.2167 29.8069 86.2118 33.1638 86.2118 37.5259C86.2118 41.8881 89.2167 45.2391 93.9168 45.2391C98.6171 45.2391 101.575 41.8418 101.575 37.5259C101.575 33.21 98.5703 29.8069 93.9168 29.8069Z" fill="white"/>
<path d="M119.95 35.3998V50.8319H112.665V24.168H120.16L131.589 38.8375V24.168H138.913V50.8319H131.882L119.95 35.3998Z" fill="white"/>
<path d="M143.988 24.168H151.395V39.8024C151.395 42.9627 153.383 45.2392 157.364 45.2392C161.345 45.2392 163.292 42.9569 163.292 39.8024V24.168H170.658V39.9989C170.658 46.6374 166.379 51.3173 157.364 51.3173C148.35 51.3173 143.988 46.597 143.988 40.045V24.1738V24.168Z" fill="white"/>
<path d="M177.556 41.9171C179.591 43.8353 182.725 45.4357 186.571 45.4357C189.067 45.4357 190.593 44.517 190.593 43.2401C190.593 41.842 188.477 41.4029 185.77 40.8829C181.111 40.0047 174.599 38.8029 174.599 32.2511C174.599 27.7733 178.621 23.7751 185.858 23.7751C190.389 23.7751 194.323 25.0521 197.328 27.4903L193.346 32.407C190.978 30.5697 187.886 29.6511 185.092 29.6511C182.976 29.6511 182.046 30.4541 182.046 31.5692C182.046 32.8462 184.203 33.2853 186.91 33.8861C191.569 34.8047 198 36.1221 198 42.3966C198 47.7583 193.808 51.3115 186.232 51.3115C180.515 51.3115 176.539 49.6303 173.704 47.0707L177.556 41.9113V41.9171Z" fill="white"/>
<path d="M71.0821 37.497C73.7421 36.9135 75.8876 34.25 75.8876 30.9452C75.8876 27.6403 73.1984 24.1333 67.5745 24.1333H51.4628V50.855H67.5745C73.1984 50.855 75.8876 47.4116 75.8876 44.0432C75.8876 40.6748 73.7421 38.0749 71.0821 37.4913M58.7937 29.9457H65.9143C67.4049 29.9457 68.4281 30.8701 68.4281 32.1469C68.4281 33.4238 67.4049 34.3944 65.9143 34.3944H58.7937V29.9457ZM65.9143 45.0543H58.7937V40.6055H65.9143C67.4049 40.6055 68.4281 41.5299 68.4281 42.8472C68.4281 44.1646 67.4049 45.0485 65.9143 45.0485" fill="white"/>
<path d="M37.9408 70.2507C38.5313 72.8795 41.2263 74.9999 44.5703 74.9999C47.9143 74.9999 51.4628 72.3422 51.4628 66.784V50.8608H24.4248V66.784C24.4248 72.348 27.909 74.9999 31.3172 74.9999C34.7256 74.9999 37.3505 72.8795 37.9467 70.2507M45.5816 58.106V65.1432C45.5816 66.6165 44.6463 67.6277 43.3543 67.6277C42.0623 67.6277 41.0802 66.6165 41.0802 65.1432V58.106H45.5816ZM30.3001 65.1432V58.106H34.8016V65.1432C34.8016 66.6165 33.8661 67.6277 32.5333 67.6277C31.2004 67.6277 30.306 66.6165 30.306 65.1432" fill="white"/>
<path d="M4.80546 37.503C2.14551 38.0865 0 40.75 0 44.0548C0 47.3597 2.68919 50.8667 8.31309 50.8667H24.4248V24.145H8.31309C2.68919 24.145 0 27.5884 0 30.9568C0 34.3252 2.14551 36.9251 4.80546 37.5088M17.0938 45.0543H9.97337C8.48263 45.0543 7.45957 44.1299 7.45957 42.8531C7.45957 41.5763 8.48263 40.6114 9.97337 40.6114H17.0938V45.0601V45.0543ZM9.97337 29.9458H17.0938V34.3946H9.97337C8.48263 34.3946 7.45957 33.4701 7.45957 32.1529C7.45957 30.8355 8.48263 29.9515 9.97337 29.9515" fill="white"/>
<path d="M37.9409 4.74925C37.3505 2.12041 34.6554 0 31.3115 0C27.9676 0 24.4189 2.65773 24.4189 8.21585V24.1391H51.4569V8.21585C51.4569 2.65773 47.9727 0 44.5645 0C41.1562 0 38.5314 2.12041 37.935 4.74925M30.3001 16.894V9.85672C30.3001 8.38341 31.2355 7.37232 32.5274 7.37232C33.8194 7.37232 34.7957 8.38341 34.7957 9.85672V16.894H30.2942H30.3001ZM45.5875 9.85672V16.894H41.086V9.85672C41.086 8.38341 42.0215 7.37232 43.3543 7.37232C44.6872 7.37232 45.5816 8.38341 45.5816 9.85672" fill="white"/>
</g>
</g>
<defs>
<clipPath id="clip0_1_32">
<rect width="198" height="75" fill="white"/>
</clipPath>
</defs>
</svg>
