<svg width="168" height="32" viewBox="0 0 168 32" fill="none" xmlns="http://www.w3.org/2000/svg">
<g clip-path="url(#clip0_156_2569)">
<path d="M35.409 0.247803H42.8155L32.0845 15.2183L43.0165 31.4273H35.2853L25.4202 16.1317H25.3429V31.4273H19.127V0.247803H25.3429V14.8777H25.4202L35.409 0.247803Z" fill="black"/>
<path d="M58.51 22.1384L53.5465 22.5873C50.8097 22.835 49.8974 23.671 49.8974 25.2037C49.8974 27.1079 51.6447 27.6962 53.6239 27.6962C55.4794 27.6962 58.51 26.6589 58.51 24.089V22.1384ZM58.7574 28.656H58.6801C56.6854 31.2724 53.8713 32.0155 51.3973 32.0155C48.0419 32.0155 43.9443 30.359 43.9443 25.4978C43.9443 23.2221 44.6865 19.4446 53.0208 18.9492L58.5255 18.6241V17.6333C58.5255 15.1098 56.9483 13.8558 54.3506 13.8558C51.9075 13.8558 50.454 15.0943 50.3303 17.014H44.6092C44.8102 13.732 47.1296 9.552 54.5825 9.552C59.8398 9.552 64.2311 11.5491 64.2311 16.4412V28.7953C64.2311 29.91 64.3548 30.6686 64.5249 31.4427H58.7729V28.656H58.7574Z" fill="black"/>
<path d="M74.7459 0.247803H68.7773V31.4273H74.7459V0.247803Z" fill="black"/>
<path d="M94.213 18.655C94.012 16.5805 92.4348 14.088 89.5742 14.088C86.4663 14.088 84.9355 16.2399 84.6108 18.655H94.213ZM84.6108 22.4634C84.8582 24.9559 86.389 27.4329 89.5742 27.4329C91.3988 27.4329 93.0069 26.566 93.8419 24.9095L99.6403 25.3584C98.1869 29.7087 94.2903 31.9999 89.2805 31.9999C82.8635 31.9999 78.3794 27.6032 78.3794 20.8069C78.3794 14.0106 82.8481 9.521 89.2805 9.521C95.7129 9.521 100.166 13.9177 100.166 20.8069V22.4634H84.5953H84.6108Z" fill="black"/>
<path d="M109.954 20.9154H109.861V31.3344H103.923V0.247803H109.861V19.3828H109.954L116.355 10.094H123.251L116.139 19.6769L123.53 31.3344H116.231L109.954 20.9154Z" fill="black"/>
<path d="M126.654 10.0939H132.607V31.3498H126.654V10.0939ZM129.622 0C131.4 0 133.086 1.53266 133.086 3.43687C133.086 5.34107 131.524 6.95114 129.622 6.95114C127.72 6.95114 126.159 5.17078 126.159 3.51427C126.159 1.85776 127.643 0 129.622 0Z" fill="black"/>
<path d="M162.063 17.6487C162.063 15.9922 161.15 14.3047 158.877 14.3047C156.604 14.3047 155.491 16.4102 155.491 18.1132V31.3497H149.538V18.237C149.538 16.0077 148.796 14.3047 146.322 14.3047C143.848 14.3047 142.982 16.3638 142.982 18.4383V31.3342H137.029V10.0938H142.734V12.865H142.812C144.714 10.0474 146.77 9.521 149.213 9.521C150.62 9.521 153.435 9.89255 154.919 12.834C157.022 10.0164 159.372 9.521 161.15 9.521C164.784 9.521 168 11.6265 168 16.1006V31.3497H162.047V17.6487H162.063Z" fill="black"/>
<path d="M12.9576 0.232178H10.3753V1.93513H7.7931V0.232178H5.1954V1.93513H2.5977V0.232178H0V13.1901H12.9576V0.232178Z" fill="#EA5C52"/>
</g>
<defs>
<clipPath id="clip0_156_2569">
<rect width="168" height="32" fill="white"/>
</clipPath>
</defs>
</svg>
